<svg xmlns="http://www.w3.org/2000/svg" viewBox="0 0 115 62" fill="none" class="w_auto h_58px md:h_62px c_fg.canvas.primary"><path fill="currentColor" d="m52.556 42.78 3.941-23.54h5.423l-3.94 23.54h-5.424ZM63.23 42.78l3.941-23.54h7.714c2.448.022 4.547.56 6.3 1.614 1.75 1.031 3.03 2.455 3.84 4.27.808 1.794 1.01 3.868.606 6.222a12.953 12.953 0 0 1-1.718 4.607 13.84 13.84 0 0 1-3.234 3.632c-1.28 1.01-2.751 1.794-4.413 2.354-1.662.56-3.436.841-5.322.841H63.23Zm6.265-5.112h2.123a8.76 8.76 0 0 0 2.964-.504 8.393 8.393 0 0 0 2.594-1.446 8.892 8.892 0 0 0 1.953-2.253 7.252 7.252 0 0 0 1.045-2.792c.202-1.233.078-2.32-.371-3.262-.45-.941-1.168-1.681-2.156-2.22-.988-.56-2.19-.84-3.604-.84h-2.29l-2.258 13.317ZM87.654 42.78l3.942-23.54h5.423l-3.133 18.563h10.072l-.842 4.977H87.654ZM46.581 42.756h-5.439l2.609-14.444-10.678 12.901s-2.15 2.35-4.675 1.27c-2.525-1.077-1.86-4.398-1.86-4.398l1.727-9.775-10.6 12.807s-2.41 2.472-4.808 1.367c-2.4-1.106-1.728-4.496-1.728-4.496L14.46 19.22h5.243l-2.405 14.271 10.44-12.635s2.111-2.46 4.666-1.305c2.554 1.155 1.892 4.386 1.892 4.386l-1.61 9.556 10.658-12.746c.445-.46 2.337-2.205 4.566-1.197 2.555 1.154 1.85 4.41 1.85 4.41L46.58 42.756Z"></path></svg>